<?xml version="1.0" encoding="UTF-8"?>
<svg width="49px" height="49px" viewBox="0 0 49 49" version="1.1" xmlns="http://www.w3.org/2000/svg" xmlns:xlink="http://www.w3.org/1999/xlink">
    <!-- Generator: Sketch 47.1 (45422) - http://www.bohemiancoding.com/sketch -->
    <title>Group 11</title>
    <desc>Created with Sketch.</desc>
    <defs>
        <rect id="path-1" x="0" y="0" width="45" height="45" rx="22.5"></rect>
        <filter x="-7.8%" y="-5.6%" width="115.6%" height="115.6%" filterUnits="objectBoundingBox" id="filter-2">
            <feOffset dx="0" dy="1" in="SourceAlpha" result="shadowOffsetOuter1"></feOffset>
            <feGaussianBlur stdDeviation="1" in="shadowOffsetOuter1" result="shadowBlurOuter1"></feGaussianBlur>
            <feColorMatrix values="0 0 0 0 0   0 0 0 0 0   0 0 0 0 0  0 0 0 0.16 0" type="matrix" in="shadowBlurOuter1"></feColorMatrix>
        </filter>
    </defs>
    <g id="Page-1" stroke="none" stroke-width="1" fill="none" fill-rule="evenodd">
        <g id="Group-11" transform="translate(2.000000, 1.000000)">
            <g id="Base">
                <use fill="black" fill-opacity="1" filter="url(#filter-2)" xlink:href="#path-1"></use>
                <use fill="#7645C6" fill-rule="evenodd" xlink:href="#path-1"></use>
            </g>
            <g id="Group-8" transform="translate(20.000000, 9.000000)" fill="#FFFFFF">
                <path d="M5.5625,2.28125 C5.60416687,2.4479175 5.63541656,2.60416594 5.65625,2.75 C5.67708344,2.89583406 5.70833313,3.0520825 5.75,3.21875 C5.66666625,3.42708437 5.59375031,3.63020734 5.53125,3.828125 C5.46874969,4.02604266 5.40625031,4.21874906 5.34375,4.40625 C5.28124969,4.55208406 5.23958344,4.64583312 5.21875,4.6875 C5.19791656,4.72916688 5.1875,4.76041656 5.1875,4.78125 C5.1875,4.80208344 5.19270828,4.82812484 5.203125,4.859375 C5.21354172,4.89062516 5.21875,4.97916594 5.21875,5.125 L5.09375,5.5 C4.98958281,5.64583406 4.86458406,5.76041625 4.71875,5.84375 C4.57291594,5.92708375 4.42708406,5.99999969 4.28125,6.0625 C4.23958313,6.10416688 4.17708375,6.14062484 4.09375,6.171875 C4.01041625,6.20312516 3.94791687,6.23958312 3.90625,6.28125 L3.8125,6.65625 L3.40625,6.71875 C3.05208156,6.80208375 2.75000125,6.84375 2.5,6.84375 L2.125,6.84375 C1.87499875,6.61458219 1.67708406,6.43750062 1.53125,6.3125 C1.38541594,6.18749938 1.2291675,6.07291719 1.0625,5.96875 C0.854165625,5.67708187 0.739583437,5.46354234 0.71875,5.328125 C0.697916563,5.19270766 0.666666875,5.06250062 0.625,4.9375 C0.583333125,4.66666531 0.531250313,4.48958375 0.46875,4.40625 L0.03125,3.96875 L0.40625,3.6875 L0.0625,3.09375 C0.31250125,2.90624906 0.499999375,2.77083375 0.625,2.6875 C0.750000625,2.60416625 0.85416625,2.51562547 0.9375,2.421875 C1.02083375,2.32812453 1.11458281,2.20833406 1.21875,2.0625 C1.32291719,1.91666594 1.48958219,1.677085 1.71875,1.34375 L2,0.9375 L2.40625,1.15625 C2.48958375,1.21875031 2.67187359,1.27604141 2.953125,1.328125 C3.23437641,1.38020859 3.47916562,1.42708312 3.6875,1.46875 C4.04166844,1.57291719 4.37499844,1.65104141 4.6875,1.703125 C5.00000156,1.75520859 5.24999906,1.8645825 5.4375,2.03125 L5.5625,2.28125 Z" id="."></path>
                <path d="M5.5625,12.28125 C5.60416687,12.4479175 5.63541656,12.6041659 5.65625,12.75 C5.67708344,12.8958341 5.70833313,13.0520825 5.75,13.21875 C5.66666625,13.4270844 5.59375031,13.6302073 5.53125,13.828125 C5.46874969,14.0260427 5.40625031,14.2187491 5.34375,14.40625 C5.28124969,14.5520841 5.23958344,14.6458331 5.21875,14.6875 C5.19791656,14.7291669 5.1875,14.7604166 5.1875,14.78125 C5.1875,14.8020834 5.19270828,14.8281248 5.203125,14.859375 C5.21354172,14.8906252 5.21875,14.9791659 5.21875,15.125 L5.09375,15.5 C4.98958281,15.6458341 4.86458406,15.7604162 4.71875,15.84375 C4.57291594,15.9270838 4.42708406,15.9999997 4.28125,16.0625 C4.23958313,16.1041669 4.17708375,16.1406248 4.09375,16.171875 C4.01041625,16.2031252 3.94791687,16.2395831 3.90625,16.28125 L3.8125,16.65625 L3.40625,16.71875 C3.05208156,16.8020838 2.75000125,16.84375 2.5,16.84375 L2.125,16.84375 C1.87499875,16.6145822 1.67708406,16.4375006 1.53125,16.3125 C1.38541594,16.1874994 1.2291675,16.0729172 1.0625,15.96875 C0.854165625,15.6770819 0.739583437,15.4635423 0.71875,15.328125 C0.697916563,15.1927077 0.666666875,15.0625006 0.625,14.9375 C0.583333125,14.6666653 0.531250313,14.4895838 0.46875,14.40625 L0.03125,13.96875 L0.40625,13.6875 L0.0625,13.09375 C0.31250125,12.9062491 0.499999375,12.7708338 0.625,12.6875 C0.750000625,12.6041662 0.85416625,12.5156255 0.9375,12.421875 C1.02083375,12.3281245 1.11458281,12.2083341 1.21875,12.0625 C1.32291719,11.9166659 1.48958219,11.677085 1.71875,11.34375 L2,10.9375 L2.40625,11.15625 C2.48958375,11.2187503 2.67187359,11.2760414 2.953125,11.328125 C3.23437641,11.3802086 3.47916562,11.4270831 3.6875,11.46875 C4.04166844,11.5729172 4.37499844,11.6510414 4.6875,11.703125 C5.00000156,11.7552086 5.24999906,11.8645825 5.4375,12.03125 L5.5625,12.28125 Z" id="."></path>
                <path d="M5.5625,22.28125 C5.60416687,22.4479175 5.63541656,22.6041659 5.65625,22.75 C5.67708344,22.8958341 5.70833313,23.0520825 5.75,23.21875 C5.66666625,23.4270844 5.59375031,23.6302073 5.53125,23.828125 C5.46874969,24.0260427 5.40625031,24.2187491 5.34375,24.40625 C5.28124969,24.5520841 5.23958344,24.6458331 5.21875,24.6875 C5.19791656,24.7291669 5.1875,24.7604166 5.1875,24.78125 C5.1875,24.8020834 5.19270828,24.8281248 5.203125,24.859375 C5.21354172,24.8906252 5.21875,24.9791659 5.21875,25.125 L5.09375,25.5 C4.98958281,25.6458341 4.86458406,25.7604162 4.71875,25.84375 C4.57291594,25.9270838 4.42708406,25.9999997 4.28125,26.0625 C4.23958313,26.1041669 4.17708375,26.1406248 4.09375,26.171875 C4.01041625,26.2031252 3.94791687,26.2395831 3.90625,26.28125 L3.8125,26.65625 L3.40625,26.71875 C3.05208156,26.8020838 2.75000125,26.84375 2.5,26.84375 L2.125,26.84375 C1.87499875,26.6145822 1.67708406,26.4375006 1.53125,26.3125 C1.38541594,26.1874994 1.2291675,26.0729172 1.0625,25.96875 C0.854165625,25.6770819 0.739583437,25.4635423 0.71875,25.328125 C0.697916563,25.1927077 0.666666875,25.0625006 0.625,24.9375 C0.583333125,24.6666653 0.531250313,24.4895838 0.46875,24.40625 L0.03125,23.96875 L0.40625,23.6875 L0.0625,23.09375 C0.31250125,22.9062491 0.499999375,22.7708338 0.625,22.6875 C0.750000625,22.6041662 0.85416625,22.5156255 0.9375,22.421875 C1.02083375,22.3281245 1.11458281,22.2083341 1.21875,22.0625 C1.32291719,21.9166659 1.48958219,21.677085 1.71875,21.34375 L2,20.9375 L2.40625,21.15625 C2.48958375,21.2187503 2.67187359,21.2760414 2.953125,21.328125 C3.23437641,21.3802086 3.47916562,21.4270831 3.6875,21.46875 C4.04166844,21.5729172 4.37499844,21.6510414 4.6875,21.703125 C5.00000156,21.7552086 5.24999906,21.8645825 5.4375,22.03125 L5.5625,22.28125 Z" id="."></path>
            </g>
        </g>
    </g>
</svg>