<?xml version="1.0" encoding="UTF-8"?>
<svg width="62px" height="54px" viewBox="0 0 62 54" version="1.1" xmlns="http://www.w3.org/2000/svg" xmlns:xlink="http://www.w3.org/1999/xlink">
    <!-- Generator: Sketch 47.1 (45422) - http://www.bohemiancoding.com/sketch -->
    <title>Group</title>
    <desc>Created with Sketch.</desc>
    <defs></defs>
    <g id="Page-1" stroke="none" stroke-width="1" fill="none" fill-rule="evenodd">
        <g id="Desktop-HD-Copy-3" transform="translate(-30.000000, -27.000000)">
            <g id="Nav" transform="translate(30.000000, 24.000000)">
                <g id="Group">
                    <path d="M11.3703017,14.2701891 C11.3541126,14.1409608 11.3257822,14.0238494 11.2853096,13.9188514 C11.2448369,13.8138534 11.2003177,13.6967421 11.1517505,13.5675138 C11.0708053,13.3736713 10.9979556,13.1636785 10.9331994,12.937529 C10.8684432,12.7113795 10.8360656,12.4448502 10.8360656,12.137933 C10.8684437,11.9763976 10.9089157,11.8592862 10.9574829,11.7865953 C11.00605,11.7139044 11.0546165,11.6533295 11.1031836,11.6048689 L11.2003175,11.1687256 L11.5645693,11.1687256 C11.6940818,11.1848792 11.8276395,11.1929558 11.9652464,11.1929558 L12.3659235,11.1929558 C12.9811075,11.1929558 13.6124711,11.1687259 14.2600333,11.1202653 C14.9075954,11.0718047 15.5713366,11.0152681 16.2512769,10.950654 C16.9959733,10.8537328 17.7973195,10.781043 18.6553393,10.7325823 C18.7362846,10.5548935 18.7888982,10.4418204 18.8131818,10.3933598 L18.8981739,10.2237485 L19.1652919,10.0783674 C19.5376402,10.0622139 19.7966611,10.1066354 19.9423626,10.2116334 C20.0880641,10.3166314 20.2013858,10.4175895 20.282331,10.5145107 C20.7032464,10.4822036 21.1322499,10.4377821 21.5693543,10.3812447 C22.0064588,10.3247073 22.4597455,10.2641325 22.929228,10.1995183 C23.5767902,10.1187506 24.232437,10.0379842 24.8961882,9.95721649 C25.5599394,9.87644881 26.2074918,9.83606557 26.8388649,9.83606557 C27.1140788,9.83606557 27.3730998,9.84414222 27.6159356,9.86029576 C27.8587714,9.87644929 28.0935091,9.90067923 28.3201559,9.93298631 L28.6115574,10.151058 C28.6763136,10.2641327 28.7572576,10.3691291 28.854392,10.4660503 C28.9515263,10.5629716 29.064848,10.6598913 29.1943604,10.7568125 C29.4371962,10.950655 29.6759812,11.1929544 29.9107224,11.483718 C30.1454637,11.7744817 30.230455,12.202544 30.1656987,12.7679177 L30.0442814,13.0102196 C29.9795252,13.0748337 29.8985812,13.1394469 29.8014469,13.204061 L29.5586123,13.5190534 L29.2914942,13.5190534 C29.1296037,13.5190534 29.0081876,13.5311684 28.9272423,13.5553987 C28.8462971,13.579629 28.7491642,13.6159739 28.6358408,13.6644345 C28.5710846,13.6967416 28.498235,13.7250098 28.4172897,13.7492401 C28.3363444,13.7734704 28.247306,13.8017387 28.1501717,13.8340458 C27.9720921,13.8178922 27.8344872,13.8098156 27.7373529,13.8098156 L27.3973844,13.8098156 C26.9117128,13.8098156 26.3855765,13.8421222 25.8189596,13.9067363 C25.2523428,13.9713505 24.7019232,14.0440403 24.1676844,14.124808 C23.7791471,14.1732686 23.4068045,14.2176901 23.0506453,14.258074 C22.6944862,14.2984578 22.3707099,14.3348027 22.079307,14.3671098 C21.9174164,14.7871018 21.7717171,15.1586275 21.6422047,15.4816982 C21.5126923,15.804769 21.3750874,16.1278348 21.2293859,16.4509056 C21.0836844,16.7739763 20.9460795,17.1010805 20.8165671,17.432228 C20.6870547,17.7633755 20.5656386,18.1308629 20.4523152,18.5347013 C20.2580466,18.825465 20.0961585,19.1041093 19.9666461,19.3706426 C19.8371336,19.637176 19.7319064,19.9400502 19.6509611,20.2792745 C19.4081253,20.5538846 19.2340956,20.8527205 19.1288667,21.1757913 C19.0236379,21.498862 18.9305522,21.773468 18.849607,21.9996175 L18.7524731,22.3630702 C18.6391498,22.476145 18.5703473,22.5649881 18.5460637,22.6296022 C18.5217801,22.6942164 18.4772609,22.7669062 18.4125047,22.8476739 C18.3639375,23.0576699 18.2991823,23.259586 18.218237,23.4534285 C18.1858589,23.5341961 18.1534813,23.6190009 18.1211032,23.7078454 C18.0887251,23.7966898 18.0806307,23.8653413 18.0968197,23.9138019 C18.0644416,24.0914908 18.0158752,24.2287938 17.951119,24.3257151 C17.951119,24.4226363 17.9430246,24.519556 17.9268355,24.6164773 L17.8782686,24.9072395 C17.8458905,25.0203142 17.8216073,25.1212723 17.8054182,25.2101167 C17.7892292,25.2989612 17.7973236,25.383766 17.8297017,25.4645337 L17.9754024,25.6583751 C18.0239696,25.7229893 18.0644416,25.8037557 18.0968197,25.900677 C18.1291978,25.932984 18.1696699,25.957214 18.218237,25.9733675 C18.2668042,25.989521 18.3072762,26.013751 18.3396543,26.0460581 C18.4691668,26.1591328 18.5905828,26.223746 18.7039062,26.2398995 L18.9467408,26.5306617 C19.0438751,27.112189 18.9548367,27.5644812 18.6796228,27.887552 C18.3882198,28.2590833 17.9025555,28.4448462 17.2226152,28.4448462 L16.8826468,28.420616 C16.7693234,28.3075412 16.7045682,28.2348514 16.6883791,28.2025444 C16.5426777,28.1379302 16.4212616,28.085432 16.3241273,28.0450482 C16.2269929,28.0046643 16.1379545,27.9279362 16.0570092,27.8148614 C16.0246311,27.7825544 15.9841591,27.7623627 15.9355919,27.754286 C15.8870248,27.7462092 15.8465527,27.7260176 15.8141746,27.6937105 C15.6522841,27.6452499 15.5227736,27.5887134 15.4256393,27.5240992 L15.1585212,27.3787181 C15.1747103,27.2171828 15.1828047,27.1041097 15.1828047,27.0394956 C15.0532923,26.8618067 14.9521122,26.6679671 14.8792615,26.4579712 C14.8064107,26.2479752 14.7457027,26.0299057 14.6971355,25.8037562 C14.6485684,25.6260673 14.6040491,25.4645344 14.5635765,25.3191526 C14.5231039,25.1737707 14.4623958,25.0445444 14.3814506,24.9314696 C14.3490724,23.8007221 14.4542997,22.8517161 14.6971355,22.0844231 C14.9399713,21.3171302 15.2070867,20.5700403 15.4984897,19.8431312 C15.6603802,19.4554463 15.8141739,19.0596906 15.9598754,18.6558522 C16.1055769,18.2520138 16.2350873,17.8401048 16.3484107,17.4201129 L16.6155288,17.1535809 C16.7288521,17.0566596 16.8017018,17.0001231 16.8340799,16.9839696 C16.8340799,16.7739736 16.8745519,16.5680191 16.9554972,16.3660999 C17.0364424,16.1641807 17.1254809,15.9582262 17.2226152,15.7482302 C17.2873714,15.619002 17.3480795,15.4897756 17.4047412,15.3605473 C17.4614029,15.231319 17.4978277,15.118246 17.5140167,15.0213248 C17.4006934,15.0213248 17.2995133,15.0253631 17.2104735,15.0334398 C17.1214337,15.0415166 17.028348,15.0536316 16.9312137,15.0697851 C16.720756,15.1182457 16.5183959,15.1424757 16.3241273,15.1424757 C16.1784258,15.1424757 16.0731985,15.134399 16.0084423,15.1182455 C15.8789299,15.1828596 15.7575138,15.2192045 15.6441904,15.2272813 C15.530867,15.2353581 15.4175454,15.2393964 15.304222,15.2393964 L14.721419,15.2393964 C14.5271503,15.2393964 14.3733566,15.2636263 14.2600333,15.312087 L13.0215769,15.312087 C12.8920644,15.312087 12.7463651,15.299972 12.5844746,15.2757417 C12.4225841,15.2515114 12.2526016,15.1909365 12.074522,15.0940153 L11.9045378,14.9001738 C11.8074034,14.7224849 11.718365,14.6255652 11.6374197,14.6094116 L11.3703017,14.5367211 L11.3703017,14.2701891 Z M39.3448462,20.6669574 C39.3286571,20.8607998 39.3448459,21.0465627 39.3934131,21.2242516 C39.4419802,21.4019405 39.5026883,21.5755884 39.575539,21.7452006 C39.6483898,21.9148127 39.7171922,22.0884606 39.7819484,22.2661495 C39.8467046,22.4438384 39.8952711,22.6215246 39.9276492,22.7992135 C39.9600273,23.025363 39.9600273,23.2717008 39.9276492,23.5382341 C39.8952711,23.8047675 39.8386102,24.0632202 39.757665,24.3136 C39.6767197,24.5639798 39.5714924,24.7901259 39.44198,24.9920451 C39.3124676,25.1939643 39.1586739,25.3433823 38.9805943,25.4403035 C38.7539475,25.7310671 38.4787377,25.9572132 38.1549567,26.1187486 C37.8311756,26.280284 37.5316826,26.4741235 37.2564687,26.700273 C37.0783891,26.8133478 36.8800762,26.8941142 36.661524,26.9425748 C36.4429717,26.9910354 36.2203756,27.0394953 35.9937288,27.0879559 C35.8156493,27.1848771 35.6051947,27.2858352 35.3623589,27.3908332 C35.1195231,27.4958312 34.8685966,27.592751 34.6095717,27.6815954 C34.3505468,27.7704399 34.0915259,27.835053 33.832501,27.8754369 C33.5734762,27.9158207 33.3468328,27.9279357 33.1525642,27.9117822 C32.6668926,28.0894711 32.1933699,28.2065824 31.7319818,28.2631198 C31.2705938,28.3196572 30.7323159,28.2833123 30.1171318,28.154084 C29.5343259,28.2348517 28.9960479,28.2106217 28.5022818,28.0813934 C28.0085157,27.9521651 27.5714178,27.7462107 27.190975,27.4635238 C26.8105323,27.1808369 26.4786617,26.8416177 26.1953532,26.4458561 C25.9120448,26.0500944 25.6813543,25.6341471 25.5032747,25.1980016 C25.3737622,24.2772501 25.4061399,23.4413171 25.6004085,22.6901777 C25.7946771,21.9390383 26.0739341,21.2444466 26.4381878,20.606382 C26.8024415,19.9683173 27.2193034,19.3787221 27.688786,18.8375786 C28.1582685,18.2964351 28.6115552,17.7674148 29.0486596,17.2505016 C29.145794,17.2828087 29.2226908,17.2787703 29.2793525,17.2383865 C29.3360142,17.1980027 29.3886278,17.1414661 29.437195,17.0687752 C29.4857621,16.9960843 29.5383758,16.9274328 29.5950375,16.8628187 C29.6516991,16.7982045 29.7205016,16.7578213 29.8014469,16.7416678 C29.9147702,16.4993647 30.0807055,16.3176402 30.2992578,16.1964886 C30.51781,16.0753371 30.6918397,15.9016892 30.8213521,15.6755397 C30.9670536,15.6432326 31.0884697,15.5947727 31.185604,15.5301586 C31.2827383,15.4655445 31.375824,15.3928546 31.4648638,15.312087 C31.5539036,15.2313193 31.6469892,15.1545911 31.7441236,15.0819002 C31.8412579,15.0092093 31.9545796,14.9567111 32.084092,14.924404 L32.084092,14.657872 C32.3754949,14.5286437 32.5899967,14.3792258 32.7276036,14.2096136 C32.8652106,14.0400015 33.0311459,13.834047 33.2254145,13.591744 C33.371116,13.5755904 33.4884849,13.5675138 33.5775247,13.5675138 C33.6665645,13.5675138 33.8001222,13.5513605 33.9782018,13.5190534 C34.1077142,13.2929039 34.2250831,13.1232943 34.3303119,13.0102196 C34.4355408,12.8971448 34.5933817,12.7759951 34.8038394,12.6467668 C34.998108,12.743688 35.2126097,12.8083012 35.447351,12.8406083 C35.6820923,12.8729153 35.8884996,12.9779118 36.0665792,13.1556007 C36.0827683,13.317136 36.1313347,13.442324 36.21228,13.5311685 C36.2932252,13.6200129 36.3822637,13.7007794 36.479398,13.7734703 C36.5765323,13.8461612 36.669618,13.9228894 36.7586578,14.0036571 C36.8476976,14.0844247 36.9084056,14.1974978 36.9407837,14.3428796 C37.0055399,14.3590332 37.0500592,14.3509565 37.0743428,14.3186494 C37.0986263,14.2863424 37.1431456,14.2782657 37.2079018,14.2944193 C37.2564689,14.5205688 37.3131298,14.6699867 37.377886,14.7426776 C37.4426422,14.8153686 37.5073975,14.9567099 37.5721537,15.1667059 C37.4912084,15.3282412 37.4305004,15.4938125 37.3900277,15.6634246 C37.3495551,15.8330367 37.248375,15.9582248 37.0864845,16.0389924 C37.0702954,16.1520672 37.1026731,16.212642 37.1836183,16.2207188 C37.2645636,16.2287956 37.31313,16.2732171 37.3293191,16.3539848 C37.3455081,16.4993666 37.3212249,16.6043631 37.2564687,16.6689772 C37.645006,17.2989651 37.9930654,17.9652885 38.3006574,18.6679673 C38.6082494,19.3706461 38.9563089,20.0369695 39.3448462,20.6669574 Z M36.3094138,22.9688248 C36.37417,22.7911359 36.4591613,22.6457563 36.5643901,22.5326815 C36.669619,22.4196068 36.730327,22.2499972 36.7465161,22.0238477 C36.6655708,21.8946194 36.6170044,21.7936613 36.6008153,21.7209704 C36.5846263,21.6482795 36.5765319,21.5311681 36.5765319,21.3696327 C36.2203727,20.8688731 35.9127853,20.3317761 35.6537604,19.7583255 C35.3947356,19.184875 35.103337,18.647778 34.7795559,18.1470184 C34.7471778,18.2116325 34.690517,18.2762457 34.6095717,18.3408598 C34.5286264,18.405474 34.439588,18.3893207 34.3424536,18.2923995 C34.3100755,18.4216278 34.2534147,18.5145092 34.1724694,18.5710466 C34.0915242,18.627584 34.0024857,18.6518139 33.9053514,18.6437371 C33.8082171,18.6356604 33.707037,18.6114304 33.6018082,18.5710466 C33.4965793,18.5306627 33.4034936,18.4781645 33.3225484,18.4135504 C32.8530658,18.7850817 32.3835903,19.1485308 31.9141078,19.5039086 C31.4446252,19.8592864 31.0237161,20.2711954 30.6513679,20.739648 C30.5866117,20.771955 30.5461397,20.78407 30.5299506,20.7759932 C30.5137616,20.7679165 30.4651951,20.7800314 30.3842499,20.8123385 C30.2547374,21.1192557 30.0968965,21.3979 29.9107224,21.6482798 C29.7245483,21.8986596 29.5424242,22.153074 29.3643446,22.4115306 C29.186265,22.6699872 29.0324713,22.9445932 28.9029589,23.2353568 C28.7734465,23.5261205 28.7005968,23.8653396 28.6844078,24.2530245 C28.9596217,24.479174 29.2833979,24.616477 29.6557461,24.6649376 C30.0280943,24.7133982 30.4125786,24.7214749 30.8092104,24.6891678 C31.2058422,24.6568607 31.5943737,24.6043625 31.9748164,24.5316716 C32.3552592,24.4589807 32.7073658,24.4226358 33.0311469,24.4226358 C33.7110871,24.2611004 34.2938843,24.0470693 34.7795559,23.7805359 C35.2652275,23.5140026 35.775175,23.2434349 36.3094138,22.9688248 Z M58.0431094,23.5745794 C57.6545721,24.2691814 57.1446246,24.8062785 56.5132515,25.1858866 C55.8818784,25.5654947 55.1857596,25.8804839 54.424874,26.1308637 C53.6639885,26.3812435 52.8666896,26.6033513 52.0329534,26.7971937 C51.1992171,26.9910362 50.3938238,27.2414122 49.6167492,27.5483294 C49.3901025,27.5483294 49.1917895,27.5564061 49.0218045,27.5725596 C48.8518194,27.5887131 48.6899313,27.6089047 48.5361353,27.633135 C48.3823393,27.6573654 48.2325928,27.6815953 48.0868913,27.7058256 C47.9411898,27.7300559 47.7793017,27.7502475 47.6012221,27.7664011 C47.5364659,27.7502475 47.4959939,27.7623625 47.4798048,27.8027463 C47.4636158,27.8431302 47.4393326,27.8794751 47.4069545,27.9117822 C47.1317406,27.9602428 46.8848612,27.9844727 46.666309,27.9844727 L46.1199311,27.9844727 C45.9256625,27.9844727 45.7273496,28.012741 45.5249864,28.0692783 C45.3226232,28.1258157 45.1404991,28.1460073 44.9786086,28.1298538 C43.7644296,28.0652397 42.813337,27.633139 42.1253022,26.833539 C41.4372674,26.033939 41.0527832,24.9234 40.9718379,23.5018888 C40.9880269,23.4211212 40.9758853,23.3726613 40.9354127,23.3565077 C40.8949401,23.3403542 40.8585152,23.3161243 40.8261371,23.2838172 C40.8261371,23.1222818 40.8463732,22.9849788 40.8868458,22.8719041 C40.9273184,22.7588293 40.9313656,22.6134497 40.8989875,22.4357608 C41.3199029,21.5473163 41.7974728,20.71946 42.3317116,19.952167 C42.8659503,19.184874 43.5054084,18.510474 44.2501048,17.9289467 C44.3634282,17.8320255 44.4605611,17.7351057 44.5415063,17.6381845 C44.6224516,17.5412633 44.6993484,17.4443435 44.7721992,17.3474223 C44.8450499,17.2505011 44.9300412,17.1656963 45.0271755,17.0930054 C45.1243098,17.0203145 45.2457259,16.9678163 45.3914274,16.9355092 C45.7313975,16.5478243 46.1361178,16.1924519 46.6056003,15.8693812 C47.0750829,15.5463104 47.5688416,15.2353595 48.0868913,14.9365191 C48.604941,14.6376787 49.1189358,14.3388428 49.6288909,14.0400023 C50.1388461,13.7411619 50.6042744,13.4059811 51.0251898,13.0344497 C51.2032694,13.1152174 51.3327799,13.1394474 51.4137252,13.1071403 C51.4946704,13.0748332 51.5837089,13.0748332 51.6808432,13.1071403 C51.7941666,13.3494433 51.9520075,13.5190529 52.1543706,13.6159741 C52.3567338,13.7128954 52.5590939,13.8138534 52.7614571,13.9188514 C52.9638203,14.0238494 53.1540388,14.1490374 53.3321184,14.2944193 C53.510198,14.4398011 53.6478029,14.6336406 53.7449372,14.8759437 C53.6478029,14.8759437 53.6032836,14.9122886 53.6113782,14.9849795 C53.6194727,15.0576704 53.6397087,15.1303602 53.6720868,15.2030511 C53.7044649,15.275742 53.7166065,15.3484319 53.708512,15.4211228 C53.7004175,15.4938137 53.6397094,15.5301586 53.5263861,15.5301586 C53.5425751,15.6109263 53.5951888,15.6553478 53.6842285,15.6634246 C53.7732683,15.6715014 53.8177876,15.7159229 53.8177876,15.7966906 C53.8177876,15.8774583 53.7975516,15.9420715 53.7570789,15.9905321 C53.7166063,16.0389927 53.7125591,16.1197592 53.7449372,16.2328339 C53.4211561,16.4428299 53.0609551,16.6447461 52.6643233,16.8385885 C52.2676915,17.0324309 51.8548768,17.2383854 51.4258669,17.4564582 C50.996857,17.6745309 50.5516647,17.9087537 50.0902767,18.1591335 C49.6288886,18.4095133 49.1796491,18.6962342 48.7425447,19.019305 C48.3054402,19.3423757 47.860248,19.7017865 47.4069545,20.0975481 C46.953661,20.4933097 46.5165631,20.9092571 46.0956477,21.3454025 C45.6747323,21.781548 45.2781064,22.2298019 44.9057582,22.6901777 C44.53341,23.1505535 44.2177282,23.606884 43.9587033,24.059183 C43.9910814,24.1399507 44.0275062,24.2005256 44.0679789,24.2409094 C44.1084515,24.2812933 44.1448763,24.3418681 44.1772544,24.4226358 C44.6953042,24.4549429 45.1769213,24.4509045 45.6221202,24.4105207 C46.0673192,24.3701369 46.5165587,24.3984051 46.9698522,24.4953263 C47.0184194,24.4630193 47.050797,24.4145594 47.066986,24.3499452 C47.0831751,24.2853311 47.1236471,24.2368712 47.1884033,24.2045641 C48.1111794,24.1076429 48.9691863,23.958225 49.76245,23.7563058 C50.5557136,23.5543866 51.3651541,23.3403554 52.1907958,23.1142059 C52.0612834,23.0657453 51.9439145,23.0213237 51.8386857,22.9809399 C51.7334568,22.9405561 51.6322768,22.9042111 51.5351424,22.8719041 C51.4541972,22.7911364 51.4582444,22.7224849 51.5472842,22.6659475 C51.636324,22.6094101 51.7132208,22.5488353 51.777977,22.4842211 C51.5513303,22.3549929 51.3692062,22.1934599 51.2315992,21.9996175 C51.0939923,21.805775 51.009001,21.5473223 50.9766229,21.2242516 C51.0737572,21.1434839 51.1223236,21.0465642 51.1223236,20.9334894 C51.1223236,20.8204147 51.0737572,20.7315716 50.9766229,20.6669574 C50.9118667,20.6508039 50.8713947,20.6508039 50.8552056,20.6669574 C50.8390165,20.6831109 50.8268749,20.7073409 50.8187804,20.739648 C50.8106859,20.771955 50.7985443,20.8002233 50.7823552,20.8244536 C50.7661662,20.8486839 50.7256941,20.8446456 50.6609379,20.8123385 C50.677127,20.6669567 50.7135518,20.545807 50.7702135,20.4488858 C50.8268752,20.3519645 50.8713944,20.2388915 50.9037725,20.1096632 L52.5793312,18.9950748 C52.7574108,19.1243031 52.9759597,19.2656444 53.2349846,19.419103 C53.4940094,19.5725616 53.765172,19.7260179 54.0484804,19.8794765 C54.3317889,20.0329351 54.6231875,20.1863913 54.9226849,20.3398499 C55.2221824,20.4933085 55.5014394,20.6427265 55.7604643,20.7881083 C55.987111,20.8850295 56.1894712,21.0142559 56.3675507,21.1757913 C56.5456303,21.3373266 56.7156128,21.5028979 56.8775034,21.67251 C57.0393939,21.8421221 57.2053292,22.0076934 57.3753143,22.1692288 C57.5452993,22.3307641 57.7436123,22.4680671 57.970259,22.5811419 C57.9378809,22.7911378 57.9459753,22.9607474 57.9945425,23.0899757 C58.0431096,23.219204 58.0592984,23.3807369 58.0431094,23.5745794 Z M26.5717468,41.0972777 C26.5555578,41.1780453 26.539369,41.2466968 26.5231799,41.3032342 C26.5069909,41.3597716 26.4908021,41.4122698 26.474613,41.4607304 C26.458424,41.509191 26.4503296,41.5697659 26.4503296,41.6424568 L26.4503296,41.9211039 C25.964658,42.7772413 25.3535303,43.4960629 24.6169284,44.0775902 C23.8803265,44.6591175 23.070886,45.1719846 22.1885825,45.6162068 C21.3062791,46.0604291 20.3875641,46.4642614 19.43241,46.827716 C18.4772558,47.1911705 17.5463992,47.5828879 16.6398122,48.0028798 C16.2512749,47.9059586 15.9558291,47.7444257 15.753466,47.5182762 C15.5511028,47.2921267 15.3973091,47.0296357 15.2920803,46.7307952 C15.1868514,46.4319548 15.1140018,46.1008123 15.0735291,45.7373577 C15.0330565,45.3739032 14.9966317,44.9983391 14.9642536,44.6106542 C15.0128207,44.4329653 15.0816232,44.2835473 15.170663,44.1623958 C15.2597028,44.0412443 15.304222,43.8675964 15.304222,43.6414469 C15.4337344,43.221455 15.5632449,42.809546 15.6927573,42.4057076 C15.8222698,42.0018692 15.9032138,41.5899602 15.9355919,41.1699682 C15.9841591,41.0407399 16.0731975,40.9518968 16.20271,40.9034362 C16.2836552,40.1280665 16.2877024,39.3405934 16.2148517,38.5409934 C16.1420009,37.7413933 16.0084433,36.9943035 15.8141746,36.2997014 C15.8303637,36.1381661 15.8505997,36.0210547 15.8748833,35.9483638 C15.8991668,35.8756728 15.8951196,35.8231746 15.8627415,35.7908676 C15.8465525,35.6616393 15.8910717,35.5970261 15.9963006,35.5970261 L16.3241273,35.5970261 C16.3241273,35.3547231 16.279608,35.1124237 16.1905682,34.8701206 C16.1015284,34.6278176 16.0165372,34.3532116 15.9355919,34.0462944 C16.0489153,33.8039913 16.1217649,33.5657303 16.154143,33.331504 C16.1865211,33.0972777 16.2593708,32.8913232 16.3726942,32.7136343 C17.2469031,32.9882444 18.084674,33.319387 18.8860322,33.7070718 C19.6873903,34.0947567 20.4765948,34.3774393 21.2536694,34.5551282 C21.8364753,34.9751202 22.4354613,35.3910675 23.0506453,35.8029827 C23.6658294,36.2148978 24.2243433,36.6671901 24.726204,37.1598729 C25.2280646,37.6525558 25.6489737,38.2138827 25.9889438,38.8438706 C26.328914,39.4738586 26.5231797,40.2249867 26.5717468,41.0972777 Z M20.8165671,42.4299377 C21.1565372,42.3007094 21.4924551,42.1634065 21.8243307,42.0180246 C22.1562063,41.8726428 22.4637937,41.7070715 22.7471021,41.5213059 C23.0304105,41.3355402 23.2853843,41.1215091 23.512031,40.879206 C23.7386778,40.636903 23.9248491,40.3461437 24.0705506,40.0069194 C23.9734163,39.813077 23.8439058,39.6394291 23.6820153,39.4859705 C23.5201247,39.3325119 23.3582366,39.1871323 23.1963461,39.0498272 C23.0344555,38.9125221 22.8766146,38.7711808 22.7228186,38.625799 C22.5690226,38.4804172 22.4435593,38.3027309 22.346425,38.092735 C22.1359673,38.0604279 21.949796,37.999853 21.7879055,37.9110086 C21.6260149,37.8221641 21.468174,37.733321 21.314378,37.6444766 C21.160582,37.5556321 20.9986939,37.4708273 20.8287089,37.3900597 C20.6587238,37.309292 20.4604109,37.2608321 20.2337641,37.2446786 C19.8776049,37.0669897 19.5578759,36.9377633 19.2745675,36.8569956 C18.9912591,36.7762279 18.7767573,36.6712315 18.6310558,36.5420032 C18.5177325,36.5420032 18.428694,36.5662332 18.3639378,36.6146938 C18.5258283,37.2285282 18.6472444,37.8060084 18.7281897,38.3471519 C18.8091349,38.8882953 18.8536542,39.4294307 18.8617487,39.9705742 C18.8698432,40.5117176 18.8415128,41.0649679 18.7767566,41.6303417 C18.7120004,42.1957155 18.6229619,42.8095406 18.5096385,43.4718356 C18.6715291,43.4556821 18.8212756,43.4193372 18.9588825,43.3627998 C19.0964895,43.3062624 19.2340944,43.2456876 19.3717013,43.1810734 C19.5093083,43.1164593 19.6550076,43.0558844 19.8088036,42.999347 C19.9625996,42.9428097 20.1447237,42.9064648 20.3551814,42.8903112 C20.4037486,42.79339 20.472551,42.7126235 20.5615908,42.6480094 C20.6506306,42.5833952 20.7356219,42.5107054 20.8165671,42.4299377 Z M41.1175386,40.3703722 C41.1013496,40.5642146 41.1175384,40.7499775 41.1661056,40.9276664 C41.2146727,41.1053553 41.2753808,41.2790032 41.3482315,41.4486153 C41.4210822,41.6182275 41.4898847,41.7918754 41.5546409,41.9695643 C41.6193971,42.1472532 41.6679635,42.3249394 41.7003417,42.5026283 C41.7327198,42.7287778 41.7327198,42.9751155 41.7003417,43.2416489 C41.6679635,43.5081822 41.6113027,43.7666349 41.5303574,44.0170147 C41.4494122,44.2673945 41.3441849,44.4935407 41.2146725,44.6954599 C41.08516,44.8973791 40.9313663,45.046797 40.7532868,45.1437182 C40.52664,45.4344819 40.2514302,45.660628 39.9276492,45.8221634 C39.6038681,45.9836987 39.3043751,46.1775383 39.0291612,46.4036878 C38.8510816,46.5167625 38.6527687,46.597529 38.4342164,46.6459896 C38.2156642,46.6944502 37.9930681,46.7429101 37.7664213,46.7913707 C37.5883417,46.8882919 37.3778872,46.98925 37.1350514,47.094248 C36.8922156,47.199246 36.641289,47.2961657 36.3822642,47.3850102 C36.1232393,47.4738546 35.8642184,47.5384678 35.6051935,47.5788516 C35.3461686,47.6192355 35.1195253,47.6313505 34.9252567,47.6151969 C34.4395851,47.7928858 33.9660623,47.9099972 33.5046743,47.9665346 C33.0432863,48.0230719 32.5050083,47.986727 31.8898243,47.8574987 C31.3070184,47.9382664 30.7687404,47.9140365 30.2749743,47.7848082 C29.7812082,47.6555799 29.3441103,47.4496254 28.9636675,47.1669385 C28.5832248,46.8842516 28.2513542,46.5450325 27.9680457,46.1492708 C27.6847373,45.7535092 27.4540467,45.3375619 27.2759672,44.9014164 C27.1464547,43.9806649 27.1788323,43.1447319 27.373101,42.3935925 C27.5673696,41.642453 27.8466266,40.9478614 28.2108803,40.3097967 C28.575134,39.671732 28.9919959,39.0821368 29.4614784,38.5409934 C29.930961,37.9998499 30.3842477,37.4708295 30.8213521,36.9539164 C30.9184865,36.9862234 30.9953833,36.9821851 31.052045,36.9418013 C31.1087067,36.9014174 31.1613203,36.8448809 31.2098875,36.77219 C31.2584546,36.6994991 31.3110683,36.6308476 31.36773,36.5662334 C31.4243916,36.5016193 31.4931941,36.4612361 31.5741394,36.4450825 C31.6874627,36.2027795 31.853398,36.0210549 32.0719503,35.8999034 C32.2905025,35.7787519 32.4645322,35.605104 32.5940446,35.3789545 C32.7397461,35.3466474 32.8611622,35.2981875 32.9582965,35.2335734 C33.0554308,35.1689592 33.1485165,35.0962694 33.2375563,35.0155017 C33.3265961,34.934734 33.4196817,34.8580059 33.5168161,34.785315 C33.6139504,34.7126241 33.727272,34.6601259 33.8567845,34.6278188 L33.8567845,34.3612868 C34.1481874,34.2320585 34.3626892,34.0826405 34.5002961,33.9130284 C34.6379031,33.7434163 34.8038384,33.5374618 34.998107,33.2951587 C35.1438085,33.2790052 35.2611774,33.2709285 35.3502172,33.2709285 C35.439257,33.2709285 35.5728147,33.2547752 35.7508943,33.2224682 C35.8804067,32.9963187 35.9977756,32.8267091 36.1030044,32.7136343 C36.2082333,32.6005596 36.3660742,32.4794099 36.5765319,32.3501816 C36.7708005,32.4471028 36.9853022,32.511716 37.2200435,32.544023 C37.4547848,32.5763301 37.6611921,32.6813265 37.8392717,32.8590154 C37.8554608,33.0205508 37.9040272,33.1457388 37.9849725,33.2345833 C38.0659177,33.3234277 38.1549562,33.4041942 38.2520905,33.4768851 C38.3492248,33.549576 38.4423105,33.6263041 38.5313503,33.7070718 C38.6203901,33.7878395 38.6810981,33.9009126 38.7134762,34.0462944 C38.7782324,34.0624479 38.8227517,34.0543713 38.8470352,34.0220642 C38.8713188,33.9897571 38.9158381,33.9816805 38.9805943,33.997834 C39.0291614,34.2239835 39.0858223,34.3734015 39.1505785,34.4460924 C39.2153347,34.5187833 39.2800899,34.6601246 39.3448462,34.8701206 C39.2639009,35.031656 39.2031928,35.1972272 39.1627202,35.3668394 C39.1222476,35.5364515 39.0210675,35.6616395 38.859177,35.7424072 C38.8429879,35.855482 38.8753655,35.9160568 38.9563108,35.9241336 C39.0372561,35.9322103 39.0858225,35.9766319 39.1020116,36.0573996 C39.1182006,36.2027814 39.0939174,36.3077778 39.0291612,36.372392 C39.4176985,37.0023799 39.7657579,37.6687032 40.0733499,38.3713821 C40.3809419,39.0740609 40.7290014,39.7403843 41.1175386,40.3703722 Z M38.0821063,42.6722396 C38.1468625,42.4945507 38.2318538,42.349171 38.3370826,42.2360963 C38.4423115,42.1230215 38.5030195,41.9534119 38.5192086,41.7272624 C38.4382633,41.5980341 38.3896969,41.4970761 38.3735078,41.4243851 C38.3573187,41.3516942 38.3492243,41.2345828 38.3492243,41.0730475 C37.9930652,40.5722879 37.6854778,40.0351908 37.4264529,39.4617403 C37.1674281,38.8882898 36.8760295,38.3511928 36.5522484,37.8504331 C36.5198703,37.9150473 36.4632095,37.9796605 36.3822642,38.0442746 C36.3013189,38.1088887 36.2122805,38.0927354 36.1151461,37.9958142 C36.082768,38.1250425 36.0261072,38.217924 35.9451619,38.2744613 C35.8642167,38.3309987 35.7751782,38.3552287 35.6780439,38.3471519 C35.5809096,38.3390751 35.4797295,38.3148452 35.3745006,38.2744613 C35.2692718,38.2340775 35.1761861,38.1815793 35.0952409,38.1169651 C34.6257583,38.4884965 34.1562828,38.8519456 33.6868003,39.2073234 C33.2173177,39.5627012 32.7964086,39.9746102 32.4240604,40.4430627 C32.3593042,40.4753698 32.3188322,40.4874848 32.3026431,40.479408 C32.2864541,40.4713312 32.2378876,40.4834462 32.1569424,40.5157533 C32.0274299,40.8226705 31.869589,41.1013148 31.6834149,41.3516946 C31.4972408,41.6020744 31.3151167,41.8564888 31.1370371,42.1149454 C30.9589575,42.3734019 30.8051638,42.6480079 30.6756514,42.9387716 C30.5461389,43.2295352 30.4732893,43.5687544 30.4571002,43.9564393 C30.7323142,44.1825888 31.0560904,44.3198918 31.4284386,44.3683524 C31.8007868,44.416813 32.1852711,44.4248896 32.5819029,44.3925826 C32.9785347,44.3602755 33.3670662,44.3077773 33.7475089,44.2350864 C34.1279517,44.1623955 34.4800583,44.1260506 34.8038394,44.1260506 C35.4837796,43.9645152 36.0665768,43.750484 36.5522484,43.4839507 C37.03792,43.2174174 37.5478675,42.9468497 38.0821063,42.6722396 Z M55.1776613,35.984709 C54.7729349,35.984709 54.335837,36.0129773 53.8663545,36.0695147 C53.3968719,36.1260521 52.9354908,36.1866269 52.4821973,36.2512411 C52.1584163,36.2997017 51.8467817,36.3400849 51.5472842,36.372392 C51.2477867,36.404699 50.9766241,36.428929 50.7337883,36.4450825 C50.6204649,36.8004603 50.5071433,37.1154495 50.3938199,37.3900597 C50.2804965,37.6646698 50.1590804,37.9311991 50.029568,38.1896557 C49.9000556,38.4642658 49.7826867,38.7429101 49.6774579,39.025597 C49.572229,39.3082839 49.4710489,39.6111582 49.3739146,39.9342289 C49.2120241,40.1926855 49.0784664,40.4309465 48.9732375,40.6490193 C48.8680087,40.867092 48.7830174,41.1134298 48.7182612,41.3880399 C48.5239926,41.6303429 48.3782933,41.8847573 48.281159,42.1512906 C48.1840247,42.417824 48.111175,42.6480084 48.0626078,42.8418508 L47.965474,43.132613 C47.8683397,43.2295343 47.8116789,43.3062624 47.7954898,43.3627998 C47.7793007,43.4193372 47.7388287,43.4718354 47.6740725,43.520296 C47.6578835,43.6979849 47.6012226,43.8756711 47.5040883,44.05336 C47.4717102,44.1341277 47.447427,44.2108558 47.4312379,44.2835467 C47.4150489,44.3562377 47.4069545,44.4087359 47.4069545,44.4410429 C47.4069545,44.6025783 47.3664824,44.7075747 47.2855372,44.7560353 C47.3017262,44.836803 47.3017262,44.9216078 47.2855372,45.0104522 C47.2693481,45.0992967 47.2531593,45.1841015 47.2369702,45.2648692 C47.1884031,45.4587116 47.1722143,45.6121679 47.1884033,45.7252426 C47.2369705,45.7898568 47.2814897,45.8463933 47.3219624,45.8948539 C47.362435,45.9433145 47.3907654,46.0079277 47.4069545,46.0886954 C47.5040888,46.1533095 47.5769384,46.1936928 47.6255056,46.2098463 C47.6902618,46.2583069 47.7873947,46.3148434 47.9169071,46.3794576 L48.1354582,46.6217594 C48.2164035,47.090212 48.1435538,47.4617377 47.9169071,47.7363478 C47.6740713,48.043265 47.2612566,48.1967213 46.6784507,48.1967213 L46.3870492,48.1967213 C46.3061039,48.1159536 46.2575375,48.0513405 46.2413484,48.0028798 C46.111836,47.9544192 46.0066087,47.914036 45.9256635,47.8817289 C45.8447182,47.8494219 45.7718686,47.7848087 45.7071123,47.6878875 C45.4966547,47.5909662 45.3266721,47.5101998 45.1971597,47.4455856 L44.9786086,47.3244347 L44.9786086,47.0336725 C44.8652852,46.8882907 44.780294,46.7267578 44.7236323,46.5490689 C44.6669706,46.37138 44.6224514,46.1936937 44.5900732,46.0160048 C44.5576951,45.870623 44.5212703,45.73332 44.4807977,45.6040917 C44.440325,45.4748634 44.3877114,45.3617904 44.3229552,45.2648692 C44.2905771,44.3279641 44.3796155,43.5364527 44.5900732,42.8903112 C44.8005309,42.2441698 45.0190799,41.622268 45.2457266,41.0245871 C45.3752391,40.7015164 45.5047495,40.3744122 45.634262,40.0432647 C45.7637744,39.7121172 45.8770961,39.3688597 45.9742304,39.0134819 L46.1927815,38.7711801 C46.3061049,38.5127235 46.3991906,38.2986924 46.4720413,38.1290802 C46.544892,37.9594681 46.6217889,37.7858202 46.7027342,37.6081313 C46.7513013,37.4950566 46.7958205,37.3860218 46.8362932,37.2810238 C46.8767658,37.1760258 46.9131906,37.0831444 46.9455687,37.0023767 C46.8484344,37.0023767 46.759396,37.006415 46.6784507,37.0144918 C46.5975054,37.0225686 46.5165614,37.0346836 46.4356161,37.0508371 C46.3384818,37.0669906 46.2494433,37.0791056 46.1684981,37.0871824 C46.0875528,37.0952591 46.0066087,37.0992975 45.9256635,37.0992975 C45.8123401,37.0992975 45.731396,37.0912208 45.6828289,37.0750673 C45.5047493,37.155835 45.3104836,37.1962182 45.1000259,37.1962182 L44.8571913,37.1962182 C44.8086241,37.1962182 44.7641049,37.1921799 44.7236323,37.1841031 C44.6831596,37.1760263 44.6467348,37.171988 44.6143567,37.171988 C44.4524662,37.171988 44.3229557,37.1962179 44.2258214,37.2446786 L43.4244672,37.2446786 C43.3920891,37.2446786 43.3516171,37.2487169 43.3030499,37.2567936 C43.2544828,37.2648704 43.2140107,37.2689087 43.1816326,37.2689087 C43.0683093,37.2689087 42.9468932,37.2567938 42.8173808,37.2325635 C42.6878683,37.2083332 42.5502634,37.155835 42.404562,37.0750673 C42.2102933,36.8166107 42.0807828,36.6793077 42.0160266,36.6631542 L41.7974755,36.372392 C41.7812864,36.2754707 41.7570032,36.1825893 41.7246251,36.0937449 C41.692247,36.0049004 41.6598694,35.9039423 41.6274913,35.7908676 C41.5627351,35.6293322 41.502027,35.4556843 41.4453653,35.2699186 C41.3887036,35.084153 41.3603732,34.8620452 41.3603732,34.6035886 C41.3765623,34.4743603 41.4089399,34.3774405 41.4575071,34.3128264 C41.5060742,34.2482123 41.5465463,34.1916757 41.5789244,34.1432151 L41.6517747,33.7797624 L41.9674597,33.8039926 L42.6473965,33.8039926 C43.1654463,33.8039926 43.6915826,33.7838009 44.2258214,33.7434171 C44.7600601,33.7030333 45.3104797,33.6586117 45.8770966,33.6101511 C46.2008776,33.577844 46.528701,33.5455374 46.8605766,33.5132304 C47.1924522,33.4809233 47.5364645,33.4486167 47.8926236,33.4163096 C47.9573798,33.2709278 48.0221351,33.1336248 48.0868913,33.0043965 L48.3297259,32.8832456 C48.6211289,32.8670921 48.8275362,32.903437 48.9489541,32.9922814 C49.070372,33.0811259 49.1715521,33.1659307 49.2524973,33.2466983 C49.6086565,33.2143913 49.9688575,33.1780464 50.3331112,33.1376625 C50.6973649,33.0972787 51.0656604,33.0447805 51.4380086,32.9801663 C51.9884364,32.8993987 52.5429032,32.8267088 53.1014255,32.7620947 C53.6599479,32.6974805 54.1982258,32.665174 54.7162755,32.665174 C54.9429223,32.665174 55.1614712,32.6732506 55.3719289,32.6894041 C55.5823866,32.7055577 55.7766524,32.7297876 55.9547319,32.7620947 L56.1975665,32.931706 C56.2461337,33.0286272 56.3149361,33.1174703 56.4039759,33.198238 C56.4930157,33.2790057 56.5861014,33.3597721 56.6832357,33.4405398 C56.8775043,33.6182287 57.0717701,33.8282215 57.2660387,34.0705246 C57.4603074,34.3128276 57.533157,34.6682001 57.4845898,35.1366526 C57.3550774,35.3304951 57.2579446,35.4435681 57.1931883,35.4758752 L56.9746372,35.7666374 L56.7318026,35.7424072 C56.6346683,35.7424072 56.5456298,35.7545222 56.4646846,35.7787525 C56.3837393,35.8029828 56.3027953,35.831251 56.22185,35.8635581 C56.1570938,35.8958652 56.0923385,35.9241335 56.0275823,35.9483638 C55.9628261,35.9725941 55.8899765,35.9927857 55.8090312,36.0089392 C55.6633297,36.0089392 55.5459608,36.0049009 55.456921,35.9968241 C55.3678812,35.9887474 55.2747956,35.984709 55.1776613,35.984709 Z" id="Tog-dot" fill="#FF4D63"></path>
                    <path d="M9.25661717,16.0510938 C8.79331068,16.2000318 8.2886451,16.3489676 7.7426053,16.4979056 C7.1965655,16.6468436 6.6505339,16.7213115 6.1044941,16.7213115 C5.27716107,16.7213115 4.62357778,16.5144562 4.14372463,16.1007395 C4.06099132,15.9187042 3.98653247,15.794591 3.92034583,15.7283963 C3.87070584,15.6622017 3.82520321,15.5918709 3.78383656,15.5174019 C3.74246991,15.4429329 3.71351369,15.3395052 3.69696702,15.2071159 C3.4984071,14.9754345 3.34121618,14.7065227 3.22538956,14.4003723 C3.10956293,14.094222 3.03096747,13.779802 2.98960082,13.457103 C2.94823417,13.1344039 2.93996097,12.8075726 2.96478096,12.4765993 C2.98960095,12.1456259 3.04337679,11.8312059 3.12611009,11.5333299 C3.15920341,11.4671352 3.17988643,11.4009415 3.18815976,11.3347469 C3.19643309,11.2685522 3.2088429,11.1940843 3.22538956,11.111341 C3.2915762,10.8465623 3.36189845,10.5900617 3.43635842,10.3418317 C3.5108184,10.0936017 3.61423347,9.87847223 3.74660676,9.69643688 C3.68042012,9.54749887 3.68042012,9.38201467 3.74660676,9.19997931 C3.8127934,9.01794396 3.88725226,8.85245976 3.96998556,8.70352175 C4.20163881,8.07467235 4.39605915,7.5409858 4.55325243,7.10244609 C4.7104457,6.66390638 4.87177322,6.22951035 5.03723983,5.79924497 C5.31853306,5.05455489 5.58327565,4.3181502 5.83147556,3.59000879 C6.07967547,2.86186738 6.30305204,2.07581743 6.50161196,1.23183534 C6.63398525,1.149092 6.73326372,1.09117253 6.79945037,1.05807519 C6.89873033,1.02497786 6.98146239,1.00015523 7.04764903,0.983606557 C7.34548892,1.13254457 7.69296358,1.27734325 8.09008344,1.41800693 C8.48720329,1.55867061 8.81813154,1.6290014 9.0828781,1.6290014 C9.21525139,1.71174474 9.29798345,1.77380131 9.33107677,1.81517298 C9.36417009,1.85654466 9.39726292,1.8937786 9.43035624,1.92687594 C9.6123695,2.14200863 9.76956042,2.36127519 9.90193371,2.58468222 C10.034307,2.80808924 10.075673,3.1018237 10.026033,3.4658944 C9.92675308,3.61483241 9.85229422,3.68930031 9.80265424,3.68930031 C9.71992094,4.02027367 9.63305227,4.30159681 9.54204564,4.53327817 C9.45103901,4.76495953 9.35589713,4.99663741 9.25661717,5.22831877 C9.14079055,5.47654879 9.03323887,5.72477509 8.9339589,5.97300512 C8.83467894,6.22123515 8.75194688,6.52738092 8.68576024,6.89145162 C8.61957359,6.97419496 8.57407096,7.04866285 8.54925097,7.11485753 C8.52443098,7.1810522 8.49547476,7.25552009 8.46238144,7.33826343 C8.42928812,7.42100677 8.39205869,7.50788598 8.35069204,7.59890366 C8.30932538,7.68992133 8.24727634,7.76852633 8.16454304,7.834721 C8.11490305,8.26498638 8.0363076,8.6125032 7.9287543,8.87728189 C7.82120101,9.14206059 7.70951272,9.40683531 7.5936861,9.671614 C7.39512617,10.1515254 7.21725224,10.6314296 7.06005897,11.111341 C6.90286569,11.5912523 6.80772382,12.1373502 6.7746305,12.7496509 C6.8573638,12.7165536 6.93595926,12.7000052 7.01041923,12.7000052 L7.2213881,12.7000052 C7.37030804,12.7000052 7.54404537,12.7248278 7.7426053,12.7744738 C8.23900512,12.5096951 8.78090012,12.3524851 9.36830657,12.3028391 C9.95571302,12.2531931 10.5389741,12.2200963 11.1181072,12.2035476 L11.8130634,12.2035476 C12.0447167,12.2035476 12.2598201,12.1869992 12.45838,12.1539018 C12.6072999,12.2366452 12.7024418,12.2821533 12.7438084,12.2904277 C12.7851751,12.298702 12.8472241,12.3028391 12.9299574,12.3028391 C13.0457841,12.3028391 13.1450625,12.3111133 13.2277958,12.327662 C13.4263558,12.5096973 13.6166395,12.6420847 13.7986528,12.724828 C13.980666,12.8075714 14.1709498,12.8820393 14.3695097,12.948234 C14.551523,13.0144286 14.7293969,13.0847594 14.9031369,13.1592284 C15.0768768,13.2336974 15.2464775,13.3371251 15.4119441,13.4695144 L15.5856832,14.5368982 C15.7015098,14.6858362 15.751149,14.7851267 15.7346024,14.8347727 C15.7346024,14.9671621 15.7015096,15.0664526 15.6353229,15.1326473 L15.6849627,15.4056989 C15.4367627,15.4553449 15.267162,15.5132644 15.1761554,15.5794591 C15.0851488,15.6456537 14.9982801,15.7201216 14.9155468,15.802865 C14.7831735,15.8194136 14.6880316,15.8276879 14.6301183,15.8276879 L14.4687892,15.8276879 C14.2371359,15.8276879 13.9558469,15.8690589 13.6249137,15.9518022 C13.1781539,15.8028642 12.7148543,15.7283963 12.2350012,15.7283963 C12.0529879,15.7283963 11.8627042,15.7366705 11.6641442,15.7532192 L11.0684674,15.802865 C10.8699075,15.8359623 10.667214,15.8607849 10.4603807,15.8773336 C10.2535475,15.8938823 10.0425807,15.9021565 9.82747411,15.9021565 L9.25661717,16.0510938 Z" id="l" fill="#FFFFFF" transform="translate(9.344262, 8.852459) rotate(-285.000000) translate(-9.344262, -8.852459) "></path>
                    <path d="M52.5353057,58.3461757 C52.0719992,58.4951137 51.5673336,58.6440495 51.0212938,58.7929875 C50.475254,58.9419256 49.9292224,59.0163934 49.3831826,59.0163934 C48.5558496,59.0163934 47.9022663,58.8095382 47.4224132,58.3958215 C47.3396798,58.2137861 47.265221,58.089673 47.1990343,58.0234783 C47.1493944,57.9572836 47.1038917,57.8869528 47.0625251,57.8124838 C47.0211584,57.7380148 46.9922022,57.6345872 46.9756555,57.5021979 C46.7770956,57.2705165 46.6199047,57.0016047 46.5040781,56.6954543 C46.3882515,56.3893039 46.309656,56.074884 46.2682893,55.7521849 C46.2269227,55.4294859 46.2186495,55.1026546 46.2434695,54.7716812 C46.2682895,54.4407079 46.3220653,54.1262879 46.4047986,53.8284119 C46.4378919,53.7622172 46.458575,53.6960235 46.4668483,53.6298288 C46.4751216,53.5636342 46.4875314,53.4891663 46.5040781,53.4064229 C46.5702647,53.1416442 46.640587,52.8851437 46.7150469,52.6369137 C46.7895069,52.3886837 46.892922,52.1735542 47.0252953,51.9915188 C46.9591086,51.8425808 46.9591086,51.6770966 47.0252953,51.4950613 C47.0914819,51.3130259 47.1659408,51.1475417 47.2486741,50.9986037 C47.4803273,50.3697543 47.6747477,49.8360678 47.831941,49.3975281 C47.9891342,48.9589883 48.1504617,48.5245923 48.3159284,48.0943269 C48.5972216,47.3496369 48.8619642,46.6132322 49.1101641,45.8850908 C49.358364,45.1569494 49.5817406,44.3708994 49.7803005,43.5269173 C49.9126738,43.444174 50.0119522,43.3862545 50.0781389,43.3531572 C50.1774189,43.3200598 50.2601509,43.2952372 50.3263376,43.2786885 C50.6241774,43.4276265 50.9716521,43.5724252 51.368772,43.7130889 C51.7658918,43.8537526 52.0968201,43.9240834 52.3615666,43.9240834 C52.4939399,44.0068267 52.576672,44.0688833 52.6097653,44.110255 C52.6428586,44.1516266 52.6759514,44.1888606 52.7090448,44.2219579 C52.891058,44.4370906 53.0482489,44.6563572 53.1806222,44.8797642 C53.3129955,45.1031712 53.3543615,45.3969057 53.3047216,45.7609764 C53.2054416,45.9099144 53.1309827,45.9843823 53.0813428,45.9843823 C52.9986095,46.3153556 52.9117408,46.5966788 52.8207342,46.8283601 C52.7297275,47.0600415 52.6345857,47.2917194 52.5353057,47.5234007 C52.4194791,47.7716308 52.3119274,48.0198571 52.2126474,48.2680871 C52.1133675,48.5163171 52.0306354,48.8224629 51.9644488,49.1865336 C51.8982621,49.2692769 51.8527595,49.3437448 51.8279395,49.4099395 C51.8031195,49.4761342 51.7741633,49.5506021 51.74107,49.6333454 C51.7079766,49.7160887 51.6707472,49.8029679 51.6293806,49.8939856 C51.5880139,49.9850033 51.5259649,50.0636083 51.4432316,50.129803 C51.3935916,50.5600683 51.3149961,50.9075852 51.2074428,51.1723639 C51.0998895,51.4371426 50.9882012,51.7019173 50.8723746,51.966696 C50.6738147,52.4466074 50.4959408,52.9265115 50.3387475,53.4064229 C50.1815542,53.8863343 50.0864123,54.4324322 50.053319,55.0447329 C50.1360523,55.0116356 50.2146478,54.9950871 50.2891078,54.9950871 L50.5000766,54.9950871 C50.6489966,54.9950871 50.8227339,55.0199098 51.0212938,55.0695558 C51.5176936,54.8047771 52.0595886,54.6475671 52.6469951,54.5979211 C53.2344015,54.5482751 53.8176626,54.5151782 54.3967957,54.4986296 L55.091752,54.4986296 C55.3234052,54.4986296 55.5385086,54.4820812 55.7370685,54.4489838 C55.8859884,54.5317272 55.9811303,54.5772353 56.022497,54.5855096 C56.0638636,54.593784 56.1259127,54.5979211 56.208646,54.5979211 C56.3244726,54.5979211 56.4237511,54.6061953 56.5064844,54.622744 C56.7050443,54.8047793 56.895328,54.9371667 57.0773413,55.01991 C57.2593546,55.1026534 57.4496383,55.1771212 57.6481982,55.2433159 C57.8302115,55.3095106 58.0080854,55.3798414 58.1818254,55.4543104 C58.3555653,55.5287794 58.525166,55.632207 58.6906326,55.7645964 L58.8643717,56.8319801 C58.9801983,56.9809182 59.0298376,57.0802087 59.0132909,57.1298547 C59.0132909,57.262244 58.9801981,57.3615346 58.9140114,57.4277292 L58.9636512,57.7007809 C58.7154513,57.7504269 58.5458505,57.8083464 58.4548439,57.874541 C58.3638373,57.9407357 58.2769686,58.0152036 58.1942353,58.0979469 C58.061862,58.1144956 57.9667202,58.1227698 57.9088068,58.1227698 L57.7474777,58.1227698 C57.5158245,58.1227698 57.2345355,58.1641409 56.9036022,58.2468842 C56.4568424,58.0979462 55.9935429,58.0234783 55.5136897,58.0234783 C55.3316764,58.0234783 55.1413927,58.0317525 54.9428328,58.0483012 L54.347156,58.0979469 C54.148596,58.1310443 53.9459025,58.1558669 53.7390692,58.1724156 C53.532236,58.1889642 53.3212692,58.1972385 53.1061626,58.1972385 L52.5353057,58.3461757 Z" id="l" fill="#FFFFFF" transform="translate(52.622951, 51.147541) rotate(-105.000000) translate(-52.622951, -51.147541) "></path>
                </g>
            </g>
        </g>
    </g>
</svg>